<svg xmlns="http://www.w3.org/2000/svg" xmlns:xlink="http://www.w3.org/1999/xlink" width="1024" zoomAndPan="magnify" viewBox="0 0 768 767.999994" height="1024" preserveAspectRatio="xMidYMid meet" version="1.0"><path fill="#ffffff" d="M 526.851562 273.492188 C 526.851562 312.757812 527.398438 352.023438 526.851562 391.289062 C 526.703125 393.566406 526.496094 395.84375 526.238281 398.113281 C 525.980469 400.382812 525.671875 402.648438 525.304688 404.902344 C 524.941406 407.160156 524.523438 409.40625 524.054688 411.640625 C 523.582031 413.878906 523.058594 416.101562 522.484375 418.3125 C 521.910156 420.523438 521.285156 422.722656 520.605469 424.902344 C 519.929688 427.085938 519.199219 429.25 518.417969 431.398438 C 517.640625 433.546875 516.808594 435.675781 515.929688 437.785156 C 515.046875 439.890625 514.121094 441.980469 513.140625 444.042969 C 512.164062 446.109375 511.136719 448.152344 510.0625 450.167969 C 508.988281 452.183594 507.867188 454.175781 506.699219 456.140625 C 505.53125 458.101562 504.316406 460.039062 503.058594 461.945312 C 501.800781 463.851562 500.496094 465.730469 499.148438 467.574219 C 497.800781 469.421875 496.410156 471.234375 494.980469 473.015625 C 493.546875 474.796875 492.074219 476.542969 490.558594 478.253906 C 489.042969 479.964844 487.488281 481.636719 485.894531 483.277344 C 484.300781 484.914062 482.671875 486.515625 481.003906 488.074219 C 479.332031 489.636719 477.628906 491.160156 475.890625 492.640625 C 474.148438 494.121094 472.375 495.5625 470.566406 496.957031 C 468.757812 498.355469 466.917969 499.710938 465.046875 501.023438 C 463.175781 502.335938 461.273438 503.601562 459.34375 504.824219 C 457.410156 506.042969 455.453125 507.222656 453.464844 508.351562 C 451.480469 509.480469 449.464844 510.5625 447.429688 511.597656 C 445.390625 512.632812 443.332031 513.621094 441.246094 514.558594 C 439.164062 515.496094 437.058594 516.386719 434.933594 517.226562 C 432.804688 518.066406 430.660156 518.855469 428.5 519.59375 C 426.335938 520.332031 424.15625 521.019531 421.960938 521.65625 C 419.765625 522.289062 417.558594 522.875 415.335938 523.40625 C 413.113281 523.941406 410.878906 524.417969 408.632812 524.847656 C 406.386719 525.273438 404.132812 525.648438 401.871094 525.96875 C 399.609375 526.289062 397.339844 526.558594 395.0625 526.773438 C 392.789062 526.988281 390.507812 527.148438 388.226562 527.257812 C 385.941406 527.363281 383.65625 527.417969 381.371094 527.417969 C 379.085938 527.417969 376.800781 527.363281 374.519531 527.257812 C 372.234375 527.148438 369.957031 526.988281 367.679688 526.773438 C 365.40625 526.558594 363.136719 526.289062 360.875 525.96875 C 358.609375 525.648438 356.355469 525.273438 354.109375 524.847656 C 351.867188 524.417969 349.632812 523.941406 347.410156 523.40625 C 345.1875 522.875 342.976562 522.289062 340.78125 521.65625 C 338.585938 521.019531 336.40625 520.332031 334.246094 519.59375 C 332.082031 518.855469 329.9375 518.066406 327.8125 517.226562 C 325.6875 516.386719 323.582031 515.496094 321.496094 514.558594 C 319.414062 513.621094 317.351562 512.632812 315.316406 511.597656 C 313.277344 510.5625 311.265625 509.480469 309.277344 508.351562 C 307.292969 507.222656 305.332031 506.042969 303.402344 504.824219 C 301.46875 503.601562 299.570312 502.335938 297.695312 501.023438 C 295.824219 499.710938 293.984375 498.355469 292.175781 496.957031 C 290.371094 495.5625 288.59375 494.121094 286.855469 492.640625 C 285.113281 491.160156 283.410156 489.636719 281.742188 488.074219 C 280.074219 486.515625 278.441406 484.914062 276.847656 483.277344 C 275.253906 481.636719 273.699219 479.964844 272.1875 478.253906 C 270.671875 476.542969 269.199219 474.796875 267.765625 473.015625 C 266.332031 471.234375 264.941406 469.421875 263.59375 467.574219 C 262.246094 465.730469 260.945312 463.851562 259.6875 461.945312 C 258.425781 460.039062 257.214844 458.101562 256.046875 456.140625 C 254.878906 454.175781 253.757812 452.183594 252.683594 450.167969 C 251.605469 448.152344 250.582031 446.109375 249.601562 444.042969 C 248.625 441.980469 247.695312 439.890625 246.816406 437.785156 C 245.933594 435.675781 245.105469 433.546875 244.324219 431.398438 C 243.542969 429.25 242.816406 427.085938 242.136719 424.902344 C 241.460938 422.722656 240.832031 420.523438 240.257812 418.3125 C 239.683594 416.101562 239.160156 413.878906 238.691406 411.640625 C 238.21875 409.40625 237.800781 407.160156 237.4375 404.902344 C 237.074219 402.648438 236.761719 400.382812 236.503906 398.113281 C 236.246094 395.84375 236.042969 393.566406 235.890625 391.289062 C 235.101562 312.332031 235.101562 233.164062 235.890625 153.78125 C 235.988281 149.96875 236.234375 146.164062 236.632812 142.371094 C 237.03125 138.574219 237.574219 134.800781 238.269531 131.050781 C 238.964844 127.296875 239.800781 123.578125 240.789062 119.894531 C 241.773438 116.207031 242.902344 112.566406 244.175781 108.96875 C 245.445312 105.371094 246.855469 101.832031 248.40625 98.34375 C 249.957031 94.859375 251.640625 91.4375 253.457031 88.082031 C 255.277344 84.730469 257.222656 81.449219 259.300781 78.25 C 261.375 75.046875 263.574219 71.933594 265.894531 68.90625 C 268.214844 65.875 270.648438 62.941406 273.203125 60.105469 C 275.753906 57.265625 278.410156 54.535156 281.175781 51.90625 C 283.941406 49.277344 286.804688 46.757812 289.769531 44.355469 C 292.730469 41.953125 295.785156 39.667969 298.925781 37.503906 C 302.070312 35.339844 305.292969 33.300781 308.59375 31.390625 C 311.898438 29.476562 315.269531 27.699219 318.714844 26.050781 C 322.15625 24.40625 325.65625 22.894531 329.21875 21.523438 C 332.777344 20.152344 336.386719 18.921875 340.046875 17.832031 C 343.703125 16.746094 347.398438 15.800781 351.128906 15.003906 C 354.859375 14.203125 358.617188 13.554688 362.402344 13.050781 C 366.183594 12.546875 369.980469 12.191406 373.792969 11.988281 C 377.601562 11.78125 381.414062 11.726562 385.230469 11.820312 C 389.042969 11.914062 392.851562 12.15625 396.644531 12.550781 C 400.441406 12.941406 404.214844 13.484375 407.96875 14.171875 C 411.722656 14.859375 415.445312 15.695312 419.132812 16.675781 C 422.820312 17.65625 426.464844 18.78125 430.0625 20.046875 C 433.664062 21.316406 437.207031 22.722656 440.695312 24.265625 C 444.183594 25.8125 447.609375 27.492188 450.964844 29.304688 C 454.324219 31.121094 457.601562 33.0625 460.808594 35.132812 C 464.011719 37.207031 467.132812 39.398438 470.164062 41.714844 C 473.195312 44.03125 476.132812 46.464844 478.972656 49.011719 C 481.816406 51.558594 484.550781 54.210938 487.183594 56.972656 C 489.816406 59.734375 492.339844 62.597656 494.746094 65.554688 C 497.15625 68.515625 499.441406 71.566406 501.613281 74.703125 C 505.722656 80.585938 509.359375 86.746094 512.523438 93.1875 C 515.691406 99.625 518.347656 106.265625 520.496094 113.113281 C 522.644531 119.957031 524.257812 126.929688 525.339844 134.019531 C 526.421875 141.113281 526.957031 148.246094 526.945312 155.421875 C 526.945312 194.960938 526.851562 234.226562 526.851562 273.492188 Z M 526.851562 273.492188 " fill-opacity="1" fill-rule="nonzero"/><path fill="#ffffff" d="M 411.398438 649.203125 L 411.398438 706.597656 C 416.167969 707.363281 420.96875 707.878906 425.796875 708.144531 C 455.136719 708.144531 484.390625 708.144531 513.730469 708.144531 C 519.859375 707.96875 525.933594 708.457031 531.957031 709.601562 C 532.828125 709.75 533.6875 709.9375 534.542969 710.164062 C 535.398438 710.386719 536.238281 710.652344 537.066406 710.953125 C 537.898438 711.257812 538.710938 711.59375 539.511719 711.96875 C 540.3125 712.347656 541.089844 712.757812 541.851562 713.203125 C 542.613281 713.648438 543.355469 714.128906 544.074219 714.644531 C 544.792969 715.15625 545.484375 715.699219 546.15625 716.277344 C 546.824219 716.851562 547.464844 717.457031 548.078125 718.09375 C 548.695312 718.726562 549.277344 719.386719 549.832031 720.074219 C 550.386719 720.761719 550.910156 721.472656 551.398438 722.207031 C 551.890625 722.941406 552.34375 723.695312 552.765625 724.472656 C 553.1875 725.246094 553.574219 726.039062 553.925781 726.851562 C 554.273438 727.660156 554.585938 728.488281 554.863281 729.324219 C 555.136719 730.164062 555.375 731.015625 555.570312 731.875 C 555.769531 732.734375 555.929688 733.601562 556.046875 734.476562 C 556.167969 735.351562 556.246094 736.230469 556.285156 737.113281 C 556.328125 737.992188 556.328125 738.875 556.285156 739.757812 C 556.203125 740.628906 556.085938 741.492188 555.925781 742.351562 C 555.769531 743.210938 555.574219 744.0625 555.34375 744.902344 C 555.113281 745.746094 554.847656 746.578125 554.542969 747.398438 C 554.242188 748.214844 553.902344 749.019531 553.53125 749.8125 C 553.160156 750.601562 552.753906 751.375 552.316406 752.128906 C 551.875 752.886719 551.40625 753.621094 550.902344 754.335938 C 550.398438 755.050781 549.867188 755.742188 549.304688 756.410156 C 548.742188 757.078125 548.152344 757.722656 547.535156 758.339844 C 546.917969 758.957031 546.273438 759.546875 545.605469 760.109375 C 544.9375 760.671875 544.246094 761.203125 543.53125 761.707031 C 542.816406 762.207031 542.078125 762.679688 541.324219 763.117188 C 540.570312 763.558594 539.796875 763.960938 539.003906 764.335938 C 538.214844 764.707031 537.410156 765.042969 536.589844 765.347656 C 535.769531 765.648438 534.9375 765.914062 534.097656 766.148438 C 533.253906 766.378906 532.402344 766.570312 531.542969 766.730469 C 530.683594 766.886719 529.820312 767.007812 528.949219 767.089844 C 524.574219 767.363281 520.203125 767.363281 515.828125 767.089844 C 426.34375 767.089844 336.554688 767.089844 246.460938 767.089844 C 241.480469 767.5 236.496094 767.5 231.515625 767.089844 C 229.886719 766.792969 228.289062 766.371094 226.726562 765.8125 C 225.167969 765.257812 223.660156 764.578125 222.210938 763.773438 C 220.761719 762.96875 219.390625 762.054688 218.089844 761.023438 C 216.792969 759.996094 215.585938 758.867188 214.472656 757.640625 C 213.359375 756.410156 212.355469 755.101562 211.457031 753.707031 C 210.558594 752.316406 209.78125 750.859375 209.121094 749.339844 C 208.464844 747.816406 207.933594 746.253906 207.53125 744.644531 C 207.132812 743.039062 206.863281 741.410156 206.730469 739.757812 C 206.683594 738.902344 206.671875 738.046875 206.699219 737.1875 C 206.726562 736.332031 206.792969 735.476562 206.898438 734.628906 C 207 733.777344 207.144531 732.929688 207.320312 732.09375 C 207.5 731.253906 207.714844 730.425781 207.96875 729.605469 C 208.222656 728.789062 208.507812 727.980469 208.832031 727.1875 C 209.15625 726.394531 209.515625 725.617188 209.910156 724.855469 C 210.300781 724.09375 210.726562 723.347656 211.1875 722.625 C 211.644531 721.902344 212.136719 721.199219 212.65625 720.519531 C 213.179688 719.835938 213.730469 719.179688 214.308594 718.550781 C 214.890625 717.917969 215.496094 717.3125 216.128906 716.734375 C 216.761719 716.15625 217.417969 715.609375 218.101562 715.089844 C 218.785156 714.570312 219.488281 714.082031 220.214844 713.625 C 220.9375 713.167969 221.683594 712.742188 222.445312 712.351562 C 223.207031 711.960938 223.988281 711.605469 224.78125 711.28125 C 225.578125 710.960938 226.382812 710.675781 227.203125 710.425781 C 228.023438 710.175781 228.855469 709.960938 229.695312 709.785156 C 235.703125 708.523438 241.777344 707.976562 247.917969 708.144531 C 275.257812 708.144531 302.59375 708.144531 329.929688 708.144531 L 349.613281 708.144531 L 349.613281 650.292969 C 332.9375 646.105469 316.355469 643.28125 300.589844 637.8125 C 207.824219 605.746094 149.503906 541.0625 125.445312 445.496094 C 122.375 432.738281 120.671875 419.800781 120.34375 406.683594 C 119.339844 381.722656 119.25 356.761719 119.707031 331.796875 C 119.691406 330.847656 119.722656 329.902344 119.800781 328.957031 C 119.878906 328.011719 120.003906 327.070312 120.171875 326.136719 C 120.34375 325.203125 120.558594 324.28125 120.820312 323.367188 C 121.082031 322.457031 121.386719 321.558594 121.738281 320.675781 C 122.085938 319.792969 122.476562 318.929688 122.914062 318.085938 C 123.347656 317.242188 123.820312 316.421875 124.335938 315.625 C 124.851562 314.828125 125.402344 314.058594 125.992188 313.316406 C 126.585938 312.574219 127.210938 311.859375 127.871094 311.179688 C 128.53125 310.496094 129.222656 309.851562 129.949219 309.238281 C 130.671875 308.625 131.425781 308.046875 132.207031 307.507812 C 132.984375 306.96875 133.792969 306.46875 134.621094 306.007812 C 135.453125 305.546875 136.300781 305.128906 137.171875 304.75 C 138.042969 304.375 138.929688 304.039062 139.835938 303.75 C 140.738281 303.460938 141.65625 303.21875 142.582031 303.015625 C 143.511719 302.816406 144.445312 302.664062 145.390625 302.554688 C 146.332031 302.449219 147.277344 302.386719 148.226562 302.371094 C 149.175781 302.355469 150.125 302.386719 151.070312 302.464844 C 152.015625 302.542969 152.957031 302.667969 153.890625 302.839844 C 154.824219 303.011719 155.746094 303.226562 156.660156 303.488281 C 157.570312 303.746094 158.46875 304.054688 159.351562 304.402344 C 160.234375 304.75 161.097656 305.144531 161.941406 305.578125 C 162.785156 306.011719 163.605469 306.484375 164.402344 307 C 165.199219 307.515625 165.972656 308.066406 166.714844 308.660156 C 167.457031 309.25 168.167969 309.875 168.851562 310.535156 C 169.53125 311.195312 170.179688 311.886719 170.792969 312.609375 C 171.40625 313.335938 171.984375 314.085938 172.523438 314.867188 C 173.0625 315.648438 173.5625 316.453125 174.023438 317.285156 C 174.484375 318.113281 174.902344 318.964844 175.28125 319.835938 C 175.65625 320.707031 175.992188 321.59375 176.28125 322.496094 C 176.570312 323.398438 176.816406 324.316406 177.015625 325.242188 C 177.214844 326.171875 177.367188 327.105469 177.476562 328.050781 C 177.585938 328.992188 177.644531 329.9375 177.660156 330.886719 C 178.753906 352.023438 177.660156 373.25 178.300781 394.660156 C 180.210938 471.09375 216.9375 527.125 280.996094 566.113281 C 283.429688 567.507812 285.890625 568.851562 288.378906 570.140625 C 290.867188 571.429688 293.382812 572.667969 295.925781 573.855469 C 298.464844 575.039062 301.027344 576.171875 303.617188 577.253906 C 306.203125 578.332031 308.8125 579.355469 311.445312 580.324219 C 314.074219 581.296875 316.722656 582.210938 319.390625 583.070312 C 322.0625 583.929688 324.746094 584.734375 327.449219 585.484375 C 330.152344 586.230469 332.867188 586.921875 335.597656 587.558594 C 338.328125 588.191406 341.070312 588.769531 343.828125 589.289062 C 346.582031 589.8125 349.347656 590.273438 352.121094 590.679688 C 354.894531 591.085938 357.675781 591.433594 360.464844 591.722656 C 363.253906 592.011719 366.046875 592.242188 368.847656 592.414062 C 371.644531 592.589844 374.445312 592.703125 377.25 592.757812 C 380.050781 592.816406 382.855469 592.8125 385.65625 592.753906 C 388.460938 592.691406 391.261719 592.574219 394.058594 592.398438 C 396.859375 592.21875 399.652344 591.984375 402.4375 591.691406 C 405.226562 591.398438 408.007812 591.046875 410.78125 590.636719 C 413.554688 590.226562 416.320312 589.761719 419.074219 589.238281 C 421.828125 588.710938 424.570312 588.128906 427.300781 587.492188 C 430.03125 586.851562 432.746094 586.15625 435.449219 585.40625 C 438.148438 584.65625 440.832031 583.847656 443.5 582.984375 C 446.167969 582.121094 448.816406 581.199219 451.445312 580.226562 C 454.074219 579.253906 456.679688 578.222656 459.265625 577.140625 C 461.855469 576.058594 464.417969 574.921875 466.953125 573.734375 C 469.492188 572.542969 472.007812 571.300781 474.492188 570.007812 C 476.980469 568.714844 479.441406 567.367188 481.871094 565.972656 C 484.300781 564.574219 486.703125 563.128906 489.074219 561.632812 C 491.445312 560.136719 493.78125 558.589844 496.089844 556.996094 C 498.394531 555.402344 500.667969 553.761719 502.90625 552.074219 C 505.144531 550.382812 507.34375 548.648438 509.511719 546.871094 C 511.675781 545.089844 513.804688 543.265625 515.894531 541.394531 C 517.984375 539.527344 520.03125 537.613281 522.042969 535.660156 C 524.050781 533.707031 526.019531 531.710938 527.945312 529.675781 C 532.390625 525.175781 536.605469 520.476562 540.589844 515.570312 C 544.574219 510.660156 548.3125 505.574219 551.804688 500.304688 C 555.296875 495.035156 558.523438 489.609375 561.488281 484.023438 C 564.453125 478.441406 567.136719 472.726562 569.546875 466.882812 C 571.953125 461.039062 574.074219 455.089844 575.902344 449.042969 C 577.734375 442.992188 579.265625 436.867188 580.503906 430.667969 C 581.738281 424.46875 582.667969 418.222656 583.296875 411.933594 C 583.925781 405.644531 584.246094 399.339844 584.261719 393.019531 C 584.261719 375.617188 584.261719 358.125 584.261719 340.636719 C 584.09375 335.652344 584.425781 330.699219 585.265625 325.785156 C 585.429688 324.949219 585.628906 324.121094 585.863281 323.300781 C 586.101562 322.484375 586.375 321.675781 586.683594 320.882812 C 586.988281 320.089844 587.332031 319.308594 587.710938 318.546875 C 588.085938 317.78125 588.496094 317.035156 588.941406 316.308594 C 589.382812 315.578125 589.859375 314.871094 590.363281 314.1875 C 590.871094 313.5 591.402344 312.839844 591.96875 312.199219 C 592.53125 311.5625 593.125 310.949219 593.742188 310.363281 C 594.363281 309.777344 595.003906 309.21875 595.671875 308.6875 C 596.339844 308.160156 597.03125 307.660156 597.742188 307.191406 C 598.457031 306.722656 599.1875 306.289062 599.9375 305.886719 C 600.6875 305.480469 601.457031 305.113281 602.238281 304.777344 C 603.023438 304.441406 603.820312 304.140625 604.628906 303.875 C 605.4375 303.609375 606.257812 303.382812 607.089844 303.1875 C 607.917969 302.996094 608.757812 302.839844 609.601562 302.722656 C 610.445312 302.605469 611.292969 302.523438 612.144531 302.480469 C 612.996094 302.4375 613.847656 302.429688 614.699219 302.460938 C 615.558594 302.460938 616.414062 302.5 617.269531 302.578125 C 618.125 302.65625 618.972656 302.777344 619.816406 302.933594 C 620.660156 303.09375 621.496094 303.292969 622.320312 303.527344 C 623.144531 303.765625 623.957031 304.042969 624.753906 304.355469 C 625.554688 304.667969 626.335938 305.019531 627.101562 305.40625 C 627.871094 305.796875 628.617188 306.21875 629.339844 306.675781 C 630.066406 307.132812 630.769531 307.625 631.449219 308.148438 C 632.128906 308.671875 632.785156 309.226562 633.410156 309.8125 C 634.039062 310.398438 634.636719 311.011719 635.207031 311.65625 C 635.777344 312.296875 636.316406 312.964844 636.824219 313.65625 C 637.328125 314.347656 637.804688 315.066406 638.242188 315.800781 C 638.683594 316.539062 639.085938 317.296875 639.453125 318.070312 C 639.824219 318.847656 640.152344 319.636719 640.445312 320.445312 C 640.742188 321.25 640.996094 322.070312 641.210938 322.898438 C 641.429688 323.730469 641.605469 324.570312 641.742188 325.414062 C 641.882812 326.261719 641.980469 327.113281 642.035156 327.972656 C 649.234375 424.359375 633.925781 513.367188 557.5625 582.332031 C 552.867188 586.660156 548.019531 590.804688 543.019531 594.773438 C 538.015625 598.742188 532.875 602.515625 527.589844 606.101562 C 522.308594 609.6875 516.898438 613.070312 511.363281 616.253906 C 505.828125 619.4375 500.183594 622.410156 494.429688 625.171875 C 488.671875 627.9375 482.820312 630.480469 476.875 632.8125 C 470.933594 635.140625 464.910156 637.246094 458.808594 639.125 C 452.707031 641.007812 446.542969 642.660156 440.316406 644.082031 C 434.09375 645.503906 427.824219 646.695312 421.511719 647.652344 C 418.871094 647.742188 415.863281 648.65625 411.398438 649.203125 Z M 411.398438 649.203125 " fill-opacity="1" fill-rule="nonzero"/></svg>